<?xml version="1.0" encoding="UTF-8"?>
<svg width="10px" height="12px" viewBox="0 0 10 12" version="1.1" xmlns="http://www.w3.org/2000/svg" xmlns:xlink="http://www.w3.org/1999/xlink">
    <!-- Generator: Sketch 50 (54983) - http://www.bohemiancoding.com/sketch -->
    <title>Icon / Company</title>
    <desc>Created with Sketch.</desc>
    <defs></defs>
    <g id="Light-Explorations" stroke="none" stroke-width="1" fill="none" fill-rule="evenodd">
        <g id="day-0-base-copy-2" transform="translate(-39.000000, -215.000000)" fill="#B8BFCA">
            <g id="Icon-/-Company" transform="translate(39.000000, 215.000000)">
                <path d="M7,12 L7,10 L3,10 L3,12 L1,12 C0.44771525,12 6.76353751e-17,11.5522847 0,11 L0,1 C-6.76353751e-17,0.44771525 0.44771525,1.01453063e-16 1,0 L9,0 C9.55228475,-1.01453063e-16 10,0.44771525 10,1 L10,11 C10,11.5522847 9.55228475,12 9,12 L7,12 Z M2,2 L2,4 L4,4 L4,2 L2,2 Z M6,2 L6,4 L8,4 L8,2 L6,2 Z M6,6 L6,8 L8,8 L8,6 L6,6 Z M2,6 L2,8 L4,8 L4,6 L2,6 Z" id="Combined-Shape"></path>
            </g>
        </g>
    </g>
</svg>