<?xml version="1.0" encoding="UTF-8"?>
<svg width="12px" height="12px" viewBox="0 0 12 12" version="1.1" xmlns="http://www.w3.org/2000/svg" xmlns:xlink="http://www.w3.org/1999/xlink">
    <!-- Generator: Sketch 50 (54983) - http://www.bohemiancoding.com/sketch -->
    <title>Home</title>
    <desc>Created with Sketch.</desc>
    <defs></defs>
    <g id="Page-1" stroke="none" stroke-width="1" fill="none" fill-rule="evenodd">
        <g id="Home" fill="#B8BFCA" fill-rule="nonzero">
            <path d="M2.5,6 L4.5,6 C4.77614237,6 5,6.22385763 5,6.5 L5,11.5 C5,11.7761424 4.77614237,12 4.5,12 L3,12 C2.44771525,12 2,11.5522847 2,11 L2,6.5 C2,6.22385763 2.22385763,6 2.5,6 Z" id="Rectangle"></path>
            <path d="M7.5,6 L9.5,6 C9.77614237,6 10,6.22385763 10,6.5 L10,11 C10,11.5522847 9.55228475,12 9,12 L7.5,12 C7.22385763,12 7,11.7761424 7,11.5 L7,6.5 C7,6.22385763 7.22385763,6 7.5,6 Z" id="Rectangle"></path>
            <path d="M6.5395511,0.308820777 L11.7728798,5.72905411 C12.0605903,6.02703996 12.0522605,6.50184063 11.7542746,6.7895511 C11.6144537,6.9245506 11.427686,7 11.2333287,7 L0.766671261,7 C0.352457698,7 0.0166712606,6.66421356 0.0166712606,6.25 C0.0166712606,6.05564272 0.0921206655,5.86887503 0.227120165,5.72905411 L5.4604489,0.308820777 C5.74815937,0.0108349357 6.22296004,0.00250509933 6.52094589,0.290215567 C6.52725594,0.296308033 6.53345863,0.302510724 6.5395511,0.308820777 Z" id="Rectangle"></path>
            <path d="M5,7 L7,7 L7,9 L7,8.5 C7,8.22385763 6.77614237,8 6.5,8 L5.5,8 C5.22385763,8 5,8.22385763 5,8.5 L5,9 L5,7 Z" id="Rectangle-7"></path>
        </g>
    </g>
</svg>
