<?xml version="1.0" encoding="UTF-8"?>
<svg width="12px" height="12px" viewBox="0 0 12 12" version="1.1" xmlns="http://www.w3.org/2000/svg" xmlns:xlink="http://www.w3.org/1999/xlink">
    <!-- Generator: Sketch 50 (54983) - http://www.bohemiancoding.com/sketch -->
    <title>Icon / Store</title>
    <desc>Created with Sketch.</desc>
    <defs></defs>
    <g id="Light-Explorations" stroke="none" stroke-width="1" fill="none" fill-rule="evenodd">
        <g id="day-0-base-copy-2" transform="translate(-38.000000, -142.000000)" fill="#B8BFCA">
            <g id="Icon-/-Store" transform="translate(38.000000, 142.000000)">
                <path d="M11,6.35506066 L11,11 C11,11.5522847 10.5522847,12 10,12 L2,12 C1.44771525,12 1,11.5522847 1,11 L1,6.35506066 C1.31685471,6.44936123 1.65251369,6.5 2,6.5 C2.34748631,6.5 2.68314529,6.44936123 3,6.35506066 L3,10 L9,10 L9,6.35506066 C9.31685471,6.44936123 9.65251369,6.5 10,6.5 C10.3474863,6.5 10.6831453,6.44936123 11,6.35506066 Z" id="Combined-Shape" fill-rule="nonzero"></path>
                <path d="M8,3 C8,4.1045695 8.8954305,5 10,5 C11.1045695,5 12,4.1045695 12,3 L12,1 C12,0.44771525 11.5522847,0 11,0 L1,0 C0.44771525,0 0,0.44771525 0,1 L0,3 C2.22044605e-16,4.1045695 0.8954305,5 2,5 C3.1045695,5 4,4.1045695 4,3 C4,4.1045695 4.8954305,5 6,5 C7.1045695,5 8,4.1045695 8,3 Z" id="Path"></path>
            </g>
        </g>
    </g>
</svg>