<?xml version="1.0" encoding="UTF-8"?>
<svg width="100px" height="12px" viewBox="0 0 100 12" version="1.1" xmlns="http://www.w3.org/2000/svg" xmlns:xlink="http://www.w3.org/1999/xlink">
    <!-- Generator: Sketch 50 (54983) - http://www.bohemiancoding.com/sketch -->
    <defs></defs>
    <g id="Light-Explorations" stroke="none" stroke-width="1" fill="none" fill-rule="evenodd">
        <g id="day-0-base-copy-3" transform="translate(-125.000000, -19.000000)" fill="#231F20">
            <path d="M223,29.1749946 C223,29.0791091 223.078402,29 223.180355,29 L223.218065,29 C223.296467,29 223.348934,29.0394822 223.383664,29.0931376 L223.999851,30.0295755 L224.619168,29.0903898 C224.656879,29.0310941 224.709197,29 224.782084,29 L224.819645,29 C224.9213,29 225,29.0791091 225,29.1749946 L225,30.8277533 C225,30.9236387 224.9213,31 224.819645,31 C224.723953,31 224.642421,30.9208909 224.642421,30.8277533 L224.642421,29.6431412 L224.145178,30.3679948 C224.107468,30.424398 224.061112,30.4583846 223.994187,30.4583846 C223.930243,30.4583846 223.88344,30.424398 223.845879,30.3679948 L223.351617,29.6486369 L223.351617,30.8306457 C223.351617,30.9265312 223.273215,31 223.174393,31 C223.07557,31 223,30.9265312 223,30.8306457 L223,29.1749946 Z M221.785347,29.3236128 L221.197623,29.3236128 C221.086748,29.3236128 221,29.2498727 221,29.1617337 C221,29.0738855 221.086748,29 221.197623,29 L222.80628,29 C222.913429,29 223,29.0738855 223,29.1617337 C223,29.2498727 222.913429,29.3236128 222.80628,29.3236128 L222.214653,29.3236128 L222.214653,30.8267762 C222.214653,30.9232056 222.117616,31 222,31 C221.882384,31 221.785347,30.9232056 221.785347,30.8267762 L221.785347,29.3236128 Z M215.275578,19.0801146 C215.32327,19.0306279 215.38883,19 215.460973,19 L218.735611,19 C218.881643,19 219,19.1252056 219,19.2793375 C219,19.369945 218.959159,19.4503431 218.895883,19.5013896 L214.088782,23.9184675 C214.040821,23.9688049 213.974858,24 213.901775,24 C213.824124,24 213.754265,23.9648347 213.705902,23.9086836 L212.06865,22.4045148 C212.026063,22.3548863 212,22.2890931 212,22.2169191 C212,22.1311327 212.036542,22.0544212 212.094444,22.0029494 L215.275578,19.0801146 Z M215.275578,30.9197436 L212.094444,27.9971924 C212.036542,27.9455788 212,27.8690091 212,27.7830809 C212,27.7109069 212.026063,27.6451137 212.06865,27.5954852 L213.705902,26.0913164 C213.754265,26.0353071 213.824124,26 213.901775,26 C213.974858,26 214.040821,26.0311951 214.088782,26.0813907 L218.895883,30.4984686 C218.959159,30.5495151 219,30.630055 219,30.7206625 C219,30.8747944 218.881643,31 218.735611,31 L215.460973,31 C215.38883,31 215.32327,30.9693721 215.275578,30.9197436 Z M206.094371,30.9261512 C206.042644,30.9717721 205.973626,31 205.89781,31 L202.29085,31 C202.130203,31 202,30.8741149 202,30.7190039 C202,30.641591 202.032514,30.5714489 202.085127,30.5208383 L208.405804,25.2145607 C208.469206,25.1630946 208.509405,25.0859668 208.509405,24.9997149 C208.509405,24.9181676 208.473344,24.844889 208.416002,24.7937081 L202.10301,19.4949865 C202.039903,19.4435204 202,19.3668203 202,19.2808535 C202,19.1258851 202.130203,19 202.29085,19 L205.89781,19 C205.973922,19 206.043235,19.0280853 206.094962,19.0741339 L212.899503,24.7878629 C212.961131,24.8391864 213,24.9148886 213,24.9997149 C213,25.0846837 212.960983,25.1609561 212.89906,25.2125647 L206.094371,30.9261512 Z M198.270773,19 L200.728806,19 C200.878173,19 201,19.1226017 201,19.2742857 L201,30.7254292 C201,30.8766855 200.878173,31 200.728806,31 L198.270773,31 C198.121124,31 198,30.8766855 198,30.7254292 L198,19.2742857 C198,19.1226017 198.121124,19 198.270773,19 Z M193.849088,26.4796412 C193.953277,26.4796412 194.037904,26.3942958 194.037904,26.2885632 L194.037904,19.5348919 C194.037904,19.2829333 194.239345,19.0787793 194.487955,19.0787793 L196.54981,19.0787793 C196.79842,19.0787793 197,19.2829333 197,19.5348919 L197,29.3182528 C197,30.3168074 196.615431,30.7529545 196.23877,30.9204114 C195.862248,31.0878682 194.719917,31.0222071 194.037904,30.420431 C193.355752,29.8187955 186.65063,23.9028303 186.65063,23.9028303 C186.65063,23.9028303 186.255378,23.5523097 186.227493,23.5300946 C186.199608,23.5078795 186.164508,23.494663 186.126079,23.494663 C186.035347,23.494663 185.961819,23.569182 185.961819,23.660995 L185.961819,30.4582529 C185.961819,30.7100709 185.760516,30.9143655 185.511768,30.9143655 L183.450051,30.9143655 C183.201302,30.9143655 183,30.7100709 183,30.4582529 L183,20.6817815 C183,19.6832268 183.384569,19.2470798 183.761091,19.0796229 C184.137752,18.9121661 185.279944,18.9776865 185.961819,19.579322 C186.643971,20.1810982 193.349093,26.0970634 193.349093,26.0970634 C193.349093,26.0970634 193.691625,26.4030131 193.715349,26.4229786 C193.752529,26.4541922 193.796785,26.4796412 193.849088,26.4796412 Z M174.466563,19.7706617 L181.934097,30.5404961 C181.975144,30.5889993 182,30.6519684 182,30.7206103 C182,30.874771 181.874869,31 181.720479,31 L178.989892,31 C178.885924,31 178.795307,30.9435548 178.747157,30.859596 L176.814797,28.0715138 C176.769772,27.9776276 176.6739,27.9128148 176.562546,27.9128148 L169.437454,27.9128148 C169.326242,27.9128148 169.230228,27.9776276 169.185203,28.0715138 L167.252701,30.859596 C167.204409,30.9435548 167.113934,31 167.010108,31 L164.279521,31 C164.125131,31 164,30.874771 164,30.7206103 C164,30.6519684 164.024714,30.5889993 164.065903,30.5404961 L171.533153,19.7702363 C171.854006,19.3049177 172.391317,19 173.000071,19 C173.608683,19 174.145994,19.3049177 174.466563,19.7706617 Z M171.147306,26 L174.852694,26 C174.934185,26 175,25.9120142 175,25.8034041 C175,25.7490159 174.983453,25.6999501 174.956953,25.6643566 L173.229858,23.0102844 L172.817383,23.0102844 L171.043047,25.6643566 C171.016423,25.6999501 171,25.7490159 171,25.8034041 C171,25.9120142 171.065815,26 171.147306,26 Z M163.003184,21.951813 L162.996285,30.5375184 C162.996285,30.7931379 162.791833,31 162.539507,31 L160.453593,31 C160.201408,31 159.996816,30.7931379 159.996816,30.5375184 L159.996816,21.951813 C159.996816,21.7968446 159.872765,21.6713872 159.719708,21.6713872 L155.456918,21.6713872 C155.204592,21.6713872 155,21.4643825 155,21.2089056 L155,19.4624816 C155,19.2071473 155.204592,19 155.456918,19 L167.543082,19 C167.795408,19 168,19.2071473 168,19.4624816 L168,21.2089056 C168,21.4643825 167.795408,21.6713872 167.543082,21.6713872 L163.280292,21.6713872 C163.127235,21.6713872 163.003184,21.7968446 163.003184,21.951813 Z M151.479404,19 L153.548567,19 C153.79794,19 154,19.2071387 154,19.4624625 C154,19.4624625 153.999026,26.0492737 153.999026,27.4234031 C153.999026,28.7975325 153.41553,29.6658614 152.304759,30.3481503 C151.193988,31.0305818 148.606179,30.999789 147.838714,30.999789 L147,30.999789 L146.161286,30.999789 C145.393821,30.999789 142.806012,31.0305818 141.695241,30.3481503 C140.584609,29.6658614 140.000974,28.7975325 140.000974,27.4234031 C140.000974,26.0492737 140,19.4624625 140,19.4624625 C140,19.2071387 140.20206,19 140.451433,19 L142.520596,19 C142.769969,19 142.972168,19.2071387 142.972168,19.4624625 L142.972168,27.2437784 C142.972168,28.064635 144.090315,28.3282272 145.462009,28.3282272 L147,28.3282272 L148.537991,28.3282272 C149.909685,28.3282272 151.027971,28.064635 151.027971,27.2437784 L151.027971,19.4624625 C151.027971,19.2071387 151.230031,19 151.479404,19 Z M135.84898,26.4796412 C135.953307,26.4796412 136.037933,26.3942958 136.037933,26.2885632 L136.037933,19.5348919 C136.037933,19.2829333 136.239511,19.0787793 136.48798,19.0787793 L138.549815,19.0787793 C138.798422,19.0787793 139,19.2829333 139,19.5348919 L139,29.3182528 C139,30.3168074 138.615296,30.7529545 138.238778,30.9204114 C137.86212,31.0878682 136.71994,31.0222071 136.037933,30.420431 C135.355927,29.8187955 128.650732,23.9028303 128.650732,23.9028303 C128.650732,23.9028303 128.255485,23.5523097 128.2276,23.5300946 C128.199715,23.5078795 128.164477,23.494663 128.126187,23.494663 C128.035595,23.494663 127.962067,23.569182 127.962067,23.660995 L127.962067,30.4582529 C127.962067,30.7100709 127.760628,30.9143655 127.51202,30.9143655 L125.450185,30.9143655 C125.201578,30.9143655 125,30.7100709 125,30.4582529 L125,20.6817815 C125,19.6832268 125.384704,19.2470798 125.761222,19.0796229 C126.13788,18.9121661 127.28006,18.9776865 127.962067,19.579322 C128.644073,20.1810982 135.349268,26.0970634 135.349268,26.0970634 C135.349268,26.0970634 135.691658,26.4030131 135.715381,26.4229786 C135.752562,26.4541922 135.796817,26.4796412 135.84898,26.4796412 Z" id="Nutanix-Logo"></path>
        </g>
    </g>
</svg>
